<!--?xml version="1.0" standalone="no"?-->
              <svg id="sw-js-blob-svg" viewBox="0 0 100 100" xmlns="http://www.w3.org/2000/svg" version="1.1">
                    <defs> 
                        <linearGradient id="sw-gradient" x1="0" x2="1" y1="1" y2="0">
                            <stop id="stop1" stop-color="rgba(248, 117, 55, 1)" offset="0%"></stop>
                            <stop id="stop2" stop-color="rgba(251, 168, 31, 1)" offset="100%"></stop>
                        </linearGradient>
                    </defs>
                <path fill="url(#sw-gradient)" d="M22.7,-28.7C27.1,-23.5,26.5,-14,27.3,-5.4C28.2,3.2,30.4,11,28.3,18.1C26.3,25.2,20,31.5,12.6,34.1C5.1,36.6,-3.7,35.4,-11.5,32.2C-19.4,29.1,-26.3,24.2,-30.2,17.5C-34,10.7,-34.7,2.2,-32.7,-5.2C-30.7,-12.6,-25.9,-18.9,-20,-23.9C-14.1,-28.8,-7.1,-32.3,1.1,-33.6C9.2,-34.9,18.4,-33.9,22.7,-28.7Z" width="100%" height="100%" transform="translate(50 50)" stroke-width="0" style="transition: 0.3s;"></path>
              </svg>