<svg xmlns="http://www.w3.org/2000/svg" viewBox="0 0 734.81 207.83"><defs><style>.cls-1{fill:#b6c61b;}.cls-2{fill:#bd3b1b;}.cls-3{fill:#d8a800;}.cls-4{fill:#b9d870;}</style></defs><g id="Layer_2" data-name="Layer 2"><g id="Layer_1-2" data-name="Layer 1"><path class="cls-1" d="M256.7,58h9.24v92.35H256.7Z"/><path class="cls-1" d="M325,110.78a19.83,19.83,0,0,0-1.58-7.92A20.36,20.36,0,0,0,312.64,92a19.64,19.64,0,0,0-7.78-1.58,18.21,18.21,0,0,0-7.79,1.72,21.76,21.76,0,0,0-6.46,4.55,22.21,22.21,0,0,0-4.42,6.53,18.27,18.27,0,0,0-1.65,7.52l.13,39.58h-9.36v-66h9.23v6.07a15.58,15.58,0,0,1,3.56-3.89,24.79,24.79,0,0,1,4.95-3,27.83,27.83,0,0,1,5.74-1.91,28.66,28.66,0,0,1,17.55,1.72,30.15,30.15,0,0,1,15.83,15.89,28.77,28.77,0,0,1,2.37,11.55l.13,39.58h-9.49Z"/><path class="cls-1" d="M352,117.24a26.39,26.39,0,0,0,2.11,10.49,27,27,0,0,0,14.44,14.45,27.13,27.13,0,0,0,21,0,27.05,27.05,0,0,0,8.64-5.81,25.77,25.77,0,0,0,4.49-6.07h10.16l-.4,1.06a35.71,35.71,0,0,1-7.72,11.54,36.55,36.55,0,0,1-11.54,7.79,36.62,36.62,0,0,1-28.23,0,36.46,36.46,0,0,1-19.33-19.33,36.5,36.5,0,0,1,0-28.23A36.37,36.37,0,0,1,364.89,83.8a36.5,36.5,0,0,1,28.23,0,36.52,36.52,0,0,1,11.54,7.78,35.75,35.75,0,0,1,7.72,11.55l.4.92H402.49a24.2,24.2,0,0,0-4.36-5.94,27.19,27.19,0,0,0-8.64-5.8,27.13,27.13,0,0,0-21,0,27,27,0,0,0-14.44,14.44A26.43,26.43,0,0,0,352,117.24Z"/><path class="cls-1" d="M470.16,120.67V84.39h9.24v36.28a28.89,28.89,0,0,1-2.31,11.48,29.63,29.63,0,0,1-6.33,9.43,30.44,30.44,0,0,1-9.43,6.4,28.88,28.88,0,0,1-23,0,30.31,30.31,0,0,1-15.83-15.83,28.27,28.27,0,0,1-2.38-11.48v-.13L420,84.39h9.5l.13,36.15v.13a19.8,19.8,0,0,0,1.59,7.92,19.52,19.52,0,0,0,4.35,6.4,21.4,21.4,0,0,0,6.4,4.29,19.49,19.49,0,0,0,7.85,1.58,20,20,0,0,0,7.91-1.58,21.24,21.24,0,0,0,6.47-4.29,19.52,19.52,0,0,0,4.35-6.4A19.79,19.79,0,0,0,470.16,120.67Z"/><path class="cls-1" d="M486,58h9.63l24.8,77.18L545.23,58h9.63l-29.55,92.35h-9.76Z"/><path class="cls-1" d="M556.31,117.24a26.4,26.4,0,0,0,2.12,10.49,27,27,0,0,0,14.44,14.45,27.13,27.13,0,0,0,21,0,27.05,27.05,0,0,0,8.64-5.81A26,26,0,0,0,607,130.3h10.16l-.4,1.06A35.71,35.71,0,0,1,609,142.9a36.67,36.67,0,0,1-11.54,7.79,36.64,36.64,0,0,1-28.24,0,36.49,36.49,0,0,1-19.32-19.33,36.5,36.5,0,0,1,0-28.23A36.4,36.4,0,0,1,569.24,83.8a36.52,36.52,0,0,1,28.24,0A36.64,36.64,0,0,1,609,91.58a35.75,35.75,0,0,1,7.72,11.55,33.47,33.47,0,0,1,2.77,11.34H556.45C556.36,115.44,556.31,116.36,556.31,117.24Zm46.18-19.13a27.19,27.19,0,0,0-8.64-5.8,27.13,27.13,0,0,0-21,0,27.19,27.19,0,0,0-8.64,5.8,27.53,27.53,0,0,0-5.15,7.13H607.5A29,29,0,0,0,602.49,98.11Z"/><path class="cls-1" d="M627.69,84.39h9.1V96.93a8.1,8.1,0,0,1,1.45-2.12A37,37,0,0,1,649.85,87,35.4,35.4,0,0,1,664,84.13v9.23a26.6,26.6,0,0,0-10.49,2.11A27.09,27.09,0,0,0,639,109.92a26.57,26.57,0,0,0-2.11,10.49v30h-9.1Z"/><path class="cls-1" d="M662.25,117.24a35.36,35.36,0,0,1,2.84-14.11A36.37,36.37,0,0,1,684.42,83.8a36.5,36.5,0,0,1,28.23,0A36.46,36.46,0,0,1,732,103.13a35.35,35.35,0,0,1,2.83,14.11v33.12h-9.23v-8.84L724.13,143a36.48,36.48,0,0,1-11.48,7.72,36.62,36.62,0,0,1-28.23,0,36.46,36.46,0,0,1-19.33-19.33A35.37,35.37,0,0,1,662.25,117.24Zm9.24,0a26.39,26.39,0,0,0,2.11,10.49,27,27,0,0,0,14.45,14.45,27.11,27.11,0,0,0,21,0,27.05,27.05,0,0,0,8.64-5.81,27.47,27.47,0,0,0,5.81-8.57,28.64,28.64,0,0,0,2.11-9.37v-1.19a26.6,26.6,0,0,0-2.11-10.49A27,27,0,0,0,709,92.31a27.11,27.11,0,0,0-21,0,26.94,26.94,0,0,0-14.45,14.44A26.43,26.43,0,0,0,671.49,117.24Z"/><path class="cls-2" d="M2.69,114.73a10.15,10.15,0,0,0-2.07,1A105.22,105.22,0,0,1,2.4,82,160.72,160.72,0,0,0,18.87,95.72c4.88,3.39,10.6,5.56,16.43,8.5a48,48,0,0,0-4.95,1Q16.49,109.94,2.69,114.73Z"/><path class="cls-1" d="M19.73,43.23a104,104,0,0,1,20.6-21.34,4.18,4.18,0,0,0,.1,3.52c2.73,6.23,5.21,12.65,8.8,18.39,5.3,8.49,11.45,16.45,17.84,25.46-11.67-4.82-22.91-9-33.67-14.12-4.24-2.06-7.64-6.17-11-9.72A10.34,10.34,0,0,0,19.73,43.23Z"/><path class="cls-3" d="M4.63,73.49A104.19,104.19,0,0,1,15.4,49.7a4.06,4.06,0,0,0,.26.36c6.87,9,15.88,15,26.51,18.7C49.75,71.4,57.33,74,64.81,76.92a39.44,39.44,0,0,1,20.9,17.94,99.48,99.48,0,0,1,12.57,37.67c-11.79-18.28-29.75-27.14-49.65-33.2-12.86-3.92-25.31-8.8-35.58-17.92a41.64,41.64,0,0,1-4.9-5.28A6.71,6.71,0,0,0,4.63,73.49Z"/><path class="cls-1" d="M95.43,145.8c7.82,21.43,6.77,42.5-4.26,62a104.44,104.44,0,0,1-89.41-84.3,8.28,8.28,0,0,0,4.44-1c11.67-5.12,23.56-9.58,36.44-10.47C66.38,110.45,87.25,123.33,95.43,145.8Z"/><path class="cls-4" d="M43.4,19.58a102.78,102.78,0,0,1,19.26-11,60.44,60.44,0,0,0,15.59,29,181.31,181.31,0,0,1,16,18.46c4.35,5.9,6,13.07,6,20.49,0,9.77,0,19.56-.22,29.45C91.82,84.19,76.15,67.34,62.49,49.15c-6-8-11.36-16.57-14.27-26.35C47.47,20.27,45.87,19,43.4,19.58Z"/><path class="cls-1" d="M70.47,6.34c0-.25-.11-.49-.16-.73a103.48,103.48,0,0,1,30-5.61V.81c.06,5.78,0,11.55,0,17.33V49c-5.25-5.6-10.49-11.38-16-16.94A49.51,49.51,0,0,1,70.47,6.34Z"/><path class="cls-2" d="M109,.62a5.82,5.82,0,0,0,0-.6,103.6,103.6,0,0,1,29.85,5.69c-2,11.92-8.41,21.22-17.11,29.37-4.56,4.26-8.37,9.3-12.59,14,0-.77-.13-1.86-.13-3Z"/><path class="cls-3" d="M108.91,102c0-7.78.19-15.59,0-23.37C108.57,66,113.68,55.53,122,46.42c2.81-3.07,5.85-5.9,8.82-8.82A56.19,56.19,0,0,0,146.44,8.74a103.39,103.39,0,0,1,19.28,11.1h0c-1.48-.14-4.21,1.2-4.57,2.46-5,17-16.3,30-27,43.4-10,12.62-19.16,25.76-25.26,41.12Z"/><path class="cls-1" d="M168.69,23.77a14.78,14.78,0,0,0-1.69-3,104.63,104.63,0,0,1,21.94,22.33,7.91,7.91,0,0,0-2.71,2.65c-4.76,6.89-11.75,10.9-19.25,13.94-8,3.24-16.22,6-23.89,8.75,5.91-8.46,12.26-17,17.92-26,3-4.79,4.89-10.35,7.18-15.62C168.61,25.91,169.06,24.58,168.69,23.77Z"/><path class="cls-4" d="M192.62,50.89c.29-.36.55-.72.81-1.09a104.1,104.1,0,0,1,10.74,23.79,4.88,4.88,0,0,0-2.26,1.66c-9.55,11.43-22.34,17.69-36,22.44-12.24,4.26-24.78,7.8-35.6,15.38a69.06,69.06,0,0,0-19.06,19.77l-1.29-.59c3.3-9.94,6.18-20.06,10-29.81,5.33-13.59,15.16-22.77,29.19-27.33q9.34-3,18.53-6.52C177.51,64.87,186,59.21,192.62,50.89Z"/><path class="cls-1" d="M207,123.41a104.46,104.46,0,0,1-88.94,84.37c-11.53-20.25-14-55.05,4.42-76.77,15.4-18.2,34.54-22.93,56.83-16.76,7.94,2.19,15.62,5.42,23.35,8.35A9.9,9.9,0,0,0,207,123.41Z"/><path class="cls-3" d="M208.76,104.3a106.9,106.9,0,0,1-.6,11.24,11,11,0,0,0-2-.84c-10.26-3.41-20.54-6.69-30.82-10a1.13,1.13,0,0,1-.22-.14c8.22-5.19,16.78-10.32,25-16a33.29,33.29,0,0,0,6.33-6.12A104,104,0,0,1,208.76,104.3Z"/></g></g></svg>