<svg xmlns="http://www.w3.org/2000/svg" viewBox="0 0 413.68 413.68"><defs><style>.cls-1{fill:#b6c61b;}.cls-2{fill:#bd3b1b;}.cls-3{fill:#d8a800;}.cls-4{fill:#b9d870;}</style></defs><g id="Layer_2" data-name="Layer 2"><g id="Layer_1-2" data-name="Layer 1"><path class="cls-1" d="M206.83,0C92.78,0,0,92.78,0,206.83S92.78,413.68,206.83,413.68s206.85-92.8,206.85-206.85S320.88,0,206.83,0Zm0,400.11c-106.74,0-193.26-86.54-193.26-193.28S100.09,13.57,206.83,13.57s193.28,86.52,193.28,193.26S313.57,400.11,206.83,400.11Z"/><path class="cls-2" d="M33.79,225.25a16.61,16.61,0,0,0-3.52,1.67,175.15,175.15,0,0,1-1.06-19.42,178.34,178.34,0,0,1,4.08-38c9,8.19,18.07,16.51,28,23.41,8.31,5.76,18,9.46,28,14.46a80.19,80.19,0,0,0-8.44,1.79Q57.29,217.08,33.79,225.25Z"/><path class="cls-1" d="M62.79,103.56a177.16,177.16,0,0,1,35-36.31,7.18,7.18,0,0,0,.18,6c4.64,10.6,8.87,21.53,15,31.28,9,14.46,19.48,28,30.35,43.34-19.86-8.2-39-15.25-57.29-24-7.22-3.49-13-10.48-18.71-16.54A18,18,0,0,0,62.79,103.56Z"/><path class="cls-3" d="M37.08,155.06a178,178,0,0,1,18.33-40.48c.12.21.3.41.44.62,11.7,15.33,27,25.53,45.13,31.81,12.9,4.5,25.79,9,38.51,13.9a67.1,67.1,0,0,1,35.58,30.52c11.28,20,18.68,41.13,21.39,64.1C176.39,224.42,145.84,209.35,112,199c-21.89-6.67-43.07-15-60.55-30.49a72,72,0,0,1-8.35-9C41.25,157.32,39.31,155.5,37.08,155.06Z"/><path class="cls-1" d="M191.61,278.13c13.31,36.45,11.51,72.32-7.26,105.55A177.72,177.72,0,0,1,32.2,240.23c2.27.38,4.91-.47,7.56-1.62,19.85-8.72,40.1-16.3,62-17.83C142.17,218,177.68,239.88,191.61,278.13Z"/><path class="cls-4" d="M103.06,63.32a175,175,0,0,1,32.79-18.69A102.74,102.74,0,0,0,162.38,94c9.63,10,19.09,20.25,27.29,31.41,7.4,10,10.16,22.24,10.16,34.87,0,16.63,0,33.29-.38,50.12-14-37.16-40.66-65.84-63.89-96.8-10.29-13.69-19.33-28.2-24.3-44.83C110,64.49,107.27,62.29,103.06,63.32Z"/><path class="cls-1" d="M149.13,40.78l-.27-1.23A176.11,176.11,0,0,1,199.92,30v1.38c.09,9.84,0,19.66,0,29.5v52.55c-8.93-9.51-17.86-19.36-27.17-28.82C160.62,72.25,152.39,57.79,149.13,40.78Z"/><path class="cls-2" d="M214.61,31.06c0-.35,0-.71,0-1a176.28,176.28,0,0,1,50.8,9.7c-3.44,20.27-14.31,36.1-29.12,50C228.51,97,222,105.53,214.85,113.58c-.06-1.32-.24-3.17-.24-5Z"/><path class="cls-3" d="M214.55,203.65c0-13.25.33-26.52,0-39.77-.55-21.63,8.14-39.37,22.3-54.88,4.79-5.23,10-10,15-15,13.93-13.72,22.51-30.23,26.59-49.12a176.44,176.44,0,0,1,32.81,18.89h-.05c-2.53-.24-7.17,2.05-7.79,4.2-8.49,28.91-27.73,51-45.86,73.85-17,21.48-32.61,43.83-43,70Z"/><path class="cls-1" d="M316.29,70.45a26.4,26.4,0,0,0-2.88-5.08,178.16,178.16,0,0,1,37.34,38,13.35,13.35,0,0,0-4.61,4.52c-8.11,11.72-20,18.54-32.76,23.71-13.63,5.52-27.62,10.16-40.66,14.89,10-14.39,20.86-28.9,30.49-44.18,5.15-8.17,8.32-17.63,12.23-26.59C316.14,74.1,316.9,71.84,316.29,70.45Z"/><path class="cls-4" d="M357,116.61c.49-.62.94-1.24,1.38-1.85a177.67,177.67,0,0,1,18.27,40.48,8.35,8.35,0,0,0-3.85,2.82c-16.25,19.45-38,30.11-61.28,38.19-20.83,7.26-42.16,13.28-60.58,26.18a117.57,117.57,0,0,0-32.43,33.63c-.74-.32-1.47-.67-2.2-1,5.61-16.92,10.51-34.13,17-50.73,9.08-23.12,25.8-38.75,49.68-46.51q15.92-5.15,31.52-11.1C331.3,140.4,345.75,130.77,357,116.61Z"/><path class="cls-1" d="M381.51,240A177.76,177.76,0,0,1,230.15,383.59c-19.62-34.46-23.73-93.68,7.52-130.64,26.21-31,58.79-39,96.71-28.53,13.52,3.73,26.59,9.23,39.75,14.22A16.7,16.7,0,0,0,381.51,240Z"/><path class="cls-3" d="M384.47,207.5a180.38,180.38,0,0,1-1,19.13,18.17,18.17,0,0,0-3.35-1.44c-17.45-5.79-35-11.37-52.44-17a2.2,2.2,0,0,1-.38-.24c14-8.84,28.55-17.56,42.5-27.14a56.28,56.28,0,0,0,10.79-10.43A178.4,178.4,0,0,1,384.47,207.5Z"/></g></g></svg>