<svg xmlns="http://www.w3.org/2000/svg" viewBox="0 0 654.42 130.74"><defs><style>.cls-1{fill:#b6c61b;}</style></defs><g id="Layer_2" data-name="Layer 2"><g id="Layer_1-2" data-name="Layer 1"><path class="cls-1" d="M0,0H12.64V126.41H0Z"/><path class="cls-1" d="M93.54,72.23A27.1,27.1,0,0,0,91.37,61.4a27.88,27.88,0,0,0-14.8-14.81,26.92,26.92,0,0,0-10.66-2.17,25.07,25.07,0,0,0-10.65,2.35A29.88,29.88,0,0,0,46.41,53a30.35,30.35,0,0,0-6,8.94A24.93,24.93,0,0,0,38.1,72.23l.18,54.18H25.46V36.12H38.1v8.3A21.08,21.08,0,0,1,43,39.1a33.31,33.31,0,0,1,6.77-4.16,38.3,38.3,0,0,1,7.85-2.62,39.15,39.15,0,0,1,8.31-.9,38.61,38.61,0,0,1,15.71,3.25,41.23,41.23,0,0,1,21.67,21.76,39.27,39.27,0,0,1,3.25,15.8l.18,54.18h-13Z"/><path class="cls-1" d="M130.38,81.08a36.16,36.16,0,0,0,2.89,14.36A36.9,36.9,0,0,0,153,115.21a37.1,37.1,0,0,0,28.71,0,37,37,0,0,0,11.83-7.94A35.25,35.25,0,0,0,199.72,99h13.91l-.54,1.44a48.77,48.77,0,0,1-10.57,15.8,50,50,0,0,1-15.8,10.66,50,50,0,0,1-38.64,0,49.89,49.89,0,0,1-26.46-26.46,50,50,0,0,1,0-38.64A49.89,49.89,0,0,1,148.08,35.3a50,50,0,0,1,38.64,0A50,50,0,0,1,202.52,46a48.77,48.77,0,0,1,10.57,15.8l.54,1.26H199.54a32.89,32.89,0,0,0-6-8.12A37.21,37.21,0,0,0,181.75,47,37.1,37.1,0,0,0,153,47a37,37,0,0,0-19.77,19.78A36.07,36.07,0,0,0,130.38,81.08Z"/><path class="cls-1" d="M292.18,85.78V36.12h12.64V85.78a39.72,39.72,0,0,1-3.16,15.71A40.73,40.73,0,0,1,293,114.4a41.88,41.88,0,0,1-12.91,8.76,39.59,39.59,0,0,1-31.42,0A41.47,41.47,0,0,1,227,101.49a38.61,38.61,0,0,1-3.25-15.71V85.6l-.18-49.48h13l.18,49.48v.18a27.25,27.25,0,0,0,8.13,19.59,29,29,0,0,0,8.76,5.87,26.6,26.6,0,0,0,10.74,2.17,27.28,27.28,0,0,0,10.83-2.17,28.85,28.85,0,0,0,8.85-5.87,27.25,27.25,0,0,0,8.13-19.59Z"/><path class="cls-1" d="M313.85,0H327l34,105.64L394.93,0h13.18L367.66,126.41H354.3Z"/><path class="cls-1" d="M410.1,81.08A36.16,36.16,0,0,0,413,95.44a36.9,36.9,0,0,0,19.77,19.77,37.1,37.1,0,0,0,28.71,0,37,37,0,0,0,11.83-7.94A35.52,35.52,0,0,0,479.44,99h13.91l-.55,1.44a48.59,48.59,0,0,1-10.56,15.8,50,50,0,0,1-15.8,10.66,50.07,50.07,0,0,1-38.65,0,49.91,49.91,0,0,1-26.45-26.46,50,50,0,0,1,0-38.64A49.91,49.91,0,0,1,427.79,35.3a50.07,50.07,0,0,1,38.65,0A50,50,0,0,1,482.24,46a48.59,48.59,0,0,1,10.56,15.8,45.86,45.86,0,0,1,3.8,15.53H410.28C410.16,78.62,410.1,79.88,410.1,81.08ZM473.3,54.9A37.21,37.21,0,0,0,461.47,47a37.1,37.1,0,0,0-28.71,0,37.34,37.34,0,0,0-18.87,17.7h66.27A39.46,39.46,0,0,0,473.3,54.9Z"/><path class="cls-1" d="M507.79,36.12h12.46V53.27a11.08,11.08,0,0,1,2-2.89,50.46,50.46,0,0,1,15.89-10.74,48.36,48.36,0,0,1,19.32-3.88V48.4a36.11,36.11,0,0,0-14.35,2.89,37,37,0,0,0-19.78,19.77,36.12,36.12,0,0,0-2.89,14.36v41H508Z"/><path class="cls-1" d="M555.1,81.08A48.19,48.19,0,0,1,559,61.76,49.91,49.91,0,0,1,585.44,35.3a50.07,50.07,0,0,1,38.65,0,49.91,49.91,0,0,1,26.45,26.46,48.36,48.36,0,0,1,3.88,19.32v45.33H641.78v-12.1l-2,2a49.9,49.9,0,0,1-15.71,10.57,50.07,50.07,0,0,1-38.65,0A49.91,49.91,0,0,1,559,100.4,48.16,48.16,0,0,1,555.1,81.08Zm12.64,0a36.33,36.33,0,0,0,2.89,14.36,37,37,0,0,0,19.78,19.77,37.1,37.1,0,0,0,28.71,0,37.14,37.14,0,0,0,19.77-19.68,38.82,38.82,0,0,0,2.89-12.82V81.08a36.07,36.07,0,0,0-2.89-14.35A37,37,0,0,0,619.12,47a37.1,37.1,0,0,0-28.71,0,37,37,0,0,0-19.78,19.78A36.25,36.25,0,0,0,567.74,81.08Z"/></g></g></svg>